<?xml version="1.0" encoding="UTF-8" standalone="no"?><svg xmlns="http://www.w3.org/2000/svg" xmlns:xlink="http://www.w3.org/1999/xlink" contentScriptType="application/ecmascript" contentStyleType="text/css" height="696px" preserveAspectRatio="none" style="width:486px;height:696px;" version="1.1" viewBox="0 0 486 696" width="486px" zoomAndPan="magnify"><defs/><g><!--cluster Dependencies--><path d="M344.556,24.053 L438.556,24.053 A4.5,4.5 0 0 1 441.556,27.053 L448.556,44.5374 L471.556,44.5374 A3,3 0 0 1 474.556,47.5374 L474.556,604.0533 A3,3 0 0 1 471.556,607.0533 L344.556,607.0533 A3,3 0 0 1 341.556,604.0533 L341.556,27.053 A3,3 0 0 1 344.556,24.053 " fill="#FFFFFF" style="stroke: #000000; stroke-width: 1.5;"/><line style="stroke: #000000; stroke-width: 1.5;" x1="341.556" x2="448.556" y1="44.5374" y2="44.5374"/><text fill="#000000" font-family="Tahoma, sans-serif" font-size="12" font-weight="bold" lengthAdjust="spacingAndGlyphs" textLength="94" x="345.556" y="38.0589">Dependencies</text><!--entity bcrypt--><rect fill="#F8F8F8" height="34.4844" rx="3" ry="3" style="stroke: #383838; stroke-width: 1.0;" width="55" x="380.556" y="407.053"/><rect fill="#F8F8F8" height="5" style="stroke: #383838; stroke-width: 1.0;" width="10" x="375.556" y="412.053"/><rect fill="#F8F8F8" height="5" style="stroke: #383838; stroke-width: 1.0;" width="10" x="375.556" y="431.5374"/><text fill="#000000" font-family="Tahoma, sans-serif" font-size="12" lengthAdjust="spacingAndGlyphs" textLength="35" x="390.556" y="429.0589">bcrypt</text><!--entity body-parser--><rect fill="#F8F8F8" height="34.4844" rx="3" ry="3" style="stroke: #383838; stroke-width: 1.0;" width="89" x="363.556" y="157.053"/><rect fill="#F8F8F8" height="5" style="stroke: #383838; stroke-width: 1.0;" width="10" x="358.556" y="162.053"/><rect fill="#F8F8F8" height="5" style="stroke: #383838; stroke-width: 1.0;" width="10" x="358.556" y="181.5374"/><text fill="#000000" font-family="Tahoma, sans-serif" font-size="12" lengthAdjust="spacingAndGlyphs" textLength="69" x="373.556" y="179.0589">body-parser</text><!--entity debug--><rect fill="#F8F8F8" height="34.4844" rx="3" ry="3" style="stroke: #383838; stroke-width: 1.0;" width="55" x="380.556" y="207.053"/><rect fill="#F8F8F8" height="5" style="stroke: #383838; stroke-width: 1.0;" width="10" x="375.556" y="212.053"/><rect fill="#F8F8F8" height="5" style="stroke: #383838; stroke-width: 1.0;" width="10" x="375.556" y="231.5374"/><text fill="#000000" font-family="Tahoma, sans-serif" font-size="12" lengthAdjust="spacingAndGlyphs" textLength="35" x="390.556" y="229.0589">debug</text><!--entity dotenv--><rect fill="#F8F8F8" height="34.4844" rx="3" ry="3" style="stroke: #383838; stroke-width: 1.0;" width="59" x="378.556" y="557.053"/><rect fill="#F8F8F8" height="5" style="stroke: #383838; stroke-width: 1.0;" width="10" x="373.556" y="562.053"/><rect fill="#F8F8F8" height="5" style="stroke: #383838; stroke-width: 1.0;" width="10" x="373.556" y="581.5374"/><text fill="#000000" font-family="Tahoma, sans-serif" font-size="12" lengthAdjust="spacingAndGlyphs" textLength="39" x="388.556" y="579.0589">dotenv</text><!--entity express--><rect fill="#F8F8F8" height="34.4844" rx="3" ry="3" style="stroke: #383838; stroke-width: 1.0;" width="65" x="375.556" y="257.053"/><rect fill="#F8F8F8" height="5" style="stroke: #383838; stroke-width: 1.0;" width="10" x="370.556" y="262.053"/><rect fill="#F8F8F8" height="5" style="stroke: #383838; stroke-width: 1.0;" width="10" x="370.556" y="281.5374"/><text fill="#000000" font-family="Tahoma, sans-serif" font-size="12" lengthAdjust="spacingAndGlyphs" textLength="45" x="385.556" y="279.0589">express</text><!--entity jsonwebtoken--><rect fill="#F8F8F8" height="34.4844" rx="3" ry="3" style="stroke: #383838; stroke-width: 1.0;" width="101" x="357.556" y="307.053"/><rect fill="#F8F8F8" height="5" style="stroke: #383838; stroke-width: 1.0;" width="10" x="352.556" y="312.053"/><rect fill="#F8F8F8" height="5" style="stroke: #383838; stroke-width: 1.0;" width="10" x="352.556" y="331.5374"/><text fill="#000000" font-family="Tahoma, sans-serif" font-size="12" lengthAdjust="spacingAndGlyphs" textLength="81" x="367.556" y="329.0589">jsonwebtoken</text><!--entity multer--><rect fill="#F8F8F8" height="34.4844" rx="3" ry="3" style="stroke: #383838; stroke-width: 1.0;" width="56" x="380.056" y="357.053"/><rect fill="#F8F8F8" height="5" style="stroke: #383838; stroke-width: 1.0;" width="10" x="375.056" y="362.053"/><rect fill="#F8F8F8" height="5" style="stroke: #383838; stroke-width: 1.0;" width="10" x="375.056" y="381.5374"/><text fill="#000000" font-family="Tahoma, sans-serif" font-size="12" lengthAdjust="spacingAndGlyphs" textLength="36" x="390.056" y="379.0589">multer</text><!--entity mysql--><rect fill="#F8F8F8" height="34.4844" rx="3" ry="3" style="stroke: #383838; stroke-width: 1.0;" width="54" x="381.056" y="457.053"/><rect fill="#F8F8F8" height="5" style="stroke: #383838; stroke-width: 1.0;" width="10" x="376.056" y="462.053"/><rect fill="#F8F8F8" height="5" style="stroke: #383838; stroke-width: 1.0;" width="10" x="376.056" y="481.5374"/><text fill="#000000" font-family="Tahoma, sans-serif" font-size="12" lengthAdjust="spacingAndGlyphs" textLength="34" x="391.056" y="479.0589">mysql</text><!--entity nodemailer--><rect fill="#F8F8F8" height="34.4844" rx="3" ry="3" style="stroke: #383838; stroke-width: 1.0;" width="84" x="366.056" y="507.053"/><rect fill="#F8F8F8" height="5" style="stroke: #383838; stroke-width: 1.0;" width="10" x="361.056" y="512.053"/><rect fill="#F8F8F8" height="5" style="stroke: #383838; stroke-width: 1.0;" width="10" x="361.056" y="531.5374"/><text fill="#000000" font-family="Tahoma, sans-serif" font-size="12" lengthAdjust="spacingAndGlyphs" textLength="64" x="376.056" y="529.0589">nodemailer</text><!--entity serve-index--><rect fill="#F8F8F8" height="34.4844" rx="3" ry="3" style="stroke: #383838; stroke-width: 1.0;" width="86" x="365.056" y="57.053"/><rect fill="#F8F8F8" height="5" style="stroke: #383838; stroke-width: 1.0;" width="10" x="360.056" y="62.053"/><rect fill="#F8F8F8" height="5" style="stroke: #383838; stroke-width: 1.0;" width="10" x="360.056" y="81.5374"/><text fill="#000000" font-family="Tahoma, sans-serif" font-size="12" lengthAdjust="spacingAndGlyphs" textLength="66" x="375.056" y="79.0589">serve-index</text><!--entity uuid--><rect fill="#F8F8F8" height="34.4844" rx="3" ry="3" style="stroke: #383838; stroke-width: 1.0;" width="44" x="386.056" y="107.053"/><rect fill="#F8F8F8" height="5" style="stroke: #383838; stroke-width: 1.0;" width="10" x="381.056" y="112.053"/><rect fill="#F8F8F8" height="5" style="stroke: #383838; stroke-width: 1.0;" width="10" x="381.056" y="131.5374"/><text fill="#000000" font-family="Tahoma, sans-serif" font-size="12" lengthAdjust="spacingAndGlyphs" textLength="24" x="396.056" y="129.0589">uuid</text><ellipse cx="212.2753" cy="512.295" fill="#F8F8F8" rx="44.7193" ry="13.242" style="stroke: #383838; stroke-width: 0.5;"/><text fill="#000000" font-family="Tahoma, sans-serif" font-size="12" lengthAdjust="spacingAndGlyphs" textLength="59" x="182.7753" y="516.0372">adminDao</text><ellipse cx="307.1123" cy="518.295" fill="#F8F8F8" rx="18.5563" ry="13.242" style="stroke: #383838; stroke-width: 0.5;"/><text fill="#000000" font-family="Tahoma, sans-serif" font-size="12" lengthAdjust="spacingAndGlyphs" textLength="22" x="296.1123" y="522.0372">dao</text><ellipse cx="211.9469" cy="459.295" fill="#F8F8F8" rx="41.8909" ry="13.242" style="stroke: #383838; stroke-width: 0.5;"/><text fill="#000000" font-family="Tahoma, sans-serif" font-size="12" lengthAdjust="spacingAndGlyphs" textLength="55" x="184.4469" y="463.0372">eventDao</text><ellipse cx="81.0685" cy="204.295" fill="#F8F8F8" rx="44.0122" ry="13.242" style="stroke: #383838; stroke-width: 0.5;"/><text fill="#000000" font-family="Tahoma, sans-serif" font-size="12" font-weight="bold" lengthAdjust="spacingAndGlyphs" textLength="58" x="52.0685" y="208.0372">lang-css</text><ellipse cx="80.9711" cy="246.836" fill="#F8F8F8" rx="54.4148" ry="13.283" style="stroke: #383838; stroke-width: 0.5;"/><text fill="#000000" font-family="Tahoma, sans-serif" font-size="12" font-weight="bold" lengthAdjust="spacingAndGlyphs" textLength="73" x="44.4711" y="250.5781">linenumber</text><ellipse cx="212.29" cy="204.295" fill="#F8F8F8" rx="36.234" ry="13.242" style="stroke: #383838; stroke-width: 0.5;"/><text fill="#000000" font-family="Tahoma, sans-serif" font-size="12" font-weight="bold" lengthAdjust="spacingAndGlyphs" textLength="47" x="188.79" y="208.0372">prettify</text><ellipse cx="80.8259" cy="615.2953" fill="#F8F8F8" rx="39.7696" ry="13.242" style="stroke: #383838; stroke-width: 0.5;"/><text fill="#000000" font-family="Tahoma, sans-serif" font-size="12" lengthAdjust="spacingAndGlyphs" textLength="52" x="54.8259" y="619.0375">runsqlfile</text><ellipse cx="211.9113" cy="628.2953" fill="#F8F8F8" rx="38.3553" ry="13.242" style="stroke: #383838; stroke-width: 0.5;"/><text fill="#000000" font-family="Tahoma, sans-serif" font-size="12" lengthAdjust="spacingAndGlyphs" textLength="50" x="186.9113" y="632.0375">sendMail</text><ellipse cx="212.0474" cy="357.295" fill="#F8F8F8" rx="31.9914" ry="13.242" style="stroke: #383838; stroke-width: 0.5;"/><text fill="#000000" font-family="Tahoma, sans-serif" font-size="12" font-weight="bold" lengthAdjust="spacingAndGlyphs" textLength="41" x="191.5474" y="361.0372">server</text><ellipse cx="81.2193" cy="573.2953" fill="#F8F8F8" rx="29.163" ry="13.242" style="stroke: #383838; stroke-width: 0.5;"/><text fill="#000000" font-family="Tahoma, sans-serif" font-size="12" font-weight="bold" lengthAdjust="spacingAndGlyphs" textLength="37" x="62.7193" y="577.0375">setup</text><ellipse cx="81.1898" cy="531.295" fill="#F8F8F8" rx="46.1335" ry="13.242" style="stroke: #383838; stroke-width: 0.5;"/><text fill="#000000" font-family="Tahoma, sans-serif" font-size="12" font-weight="bold" lengthAdjust="spacingAndGlyphs" textLength="61" x="50.6898" y="535.0372">teardown</text><ellipse cx="211.9113" cy="412.295" fill="#F8F8F8" rx="38.3553" ry="13.242" style="stroke: #383838; stroke-width: 0.5;"/><text fill="#000000" font-family="Tahoma, sans-serif" font-size="12" lengthAdjust="spacingAndGlyphs" textLength="50" x="186.9113" y="416.0372">UserDao</text><!--link adminDao to dao--><path d="M255.746,514.807 C265.057,515.408 274.573,516.022 282.788,516.552 " fill="none" id="adminDao-dao" style="stroke: #000000; stroke-width: 0.5;"/><polygon fill="#000000" points="288.249,516.904,279.526,512.3313,283.2594,516.5812,279.0095,520.3146,288.249,516.904" style="stroke: #000000; stroke-width: 0.5;"/><!--link eventDao to dao--><path d="M231.43,470.71 C247.978,481.208 272.139,496.536 288.447,506.882 " fill="none" id="eventDao-dao" style="stroke: #000000; stroke-width: 0.5;"/><polygon fill="#000000" points="292.826,509.66,287.3698,501.4606,288.6042,506.9812,283.0836,508.2156,292.826,509.66" style="stroke: #000000; stroke-width: 0.5;"/><!--link runsqlfile to mysql--><path d="M120.128,612.0345 C181.529,606.3381 298.312,591.808 325.556,562.053 C344.617,541.237 315.708,520.918 333.556,499.053 C343.894,486.389 360.935,480.114 376.007,477.015 " fill="none" id="runsqlfile-mysql" style="stroke: #000000; stroke-width: 0.5;"/><polygon fill="#000000" points="381.03,476.082,371.4503,473.7952,376.1143,476.9963,372.9132,481.6603,381.03,476.082" style="stroke: #000000; stroke-width: 0.5;"/><!--link sendMail to dotenv--><path d="M241.577,636.5103 C264.801,641.9514 298.113,646.4235 325.556,637.0533 C349.896,628.7427 372.609,609.8877 387.842,594.9579 " fill="none" id="sendMail-dotenv" style="stroke: #000000; stroke-width: 0.5;"/><polygon fill="#000000" points="391.55,591.2556,382.3549,594.7841,388.0118,594.7884,388.0074,600.4453,391.55,591.2556" style="stroke: #000000; stroke-width: 0.5;"/><!--link sendMail to nodemailer--><path d="M250.199,629.9166 C275.069,629.0306 306.608,623.4096 325.556,603.0533 C342.087,585.2945 318.019,567.688 333.556,549.053 C340.592,540.615 350.6,535.015 360.973,531.303 " fill="none" id="sendMail-nodemailer" style="stroke: #000000; stroke-width: 0.5;"/><polygon fill="#000000" points="365.755,529.726,355.9551,528.7454,361.0065,531.2917,358.4602,536.3431,365.755,529.726" style="stroke: #000000; stroke-width: 0.5;"/><!--link <b>server</b> to adminDao--><path d="M189.343,366.234 C175.702,373.076 159.498,383.871 151.556,399.053 C136.517,427.802 136.193,443.477 151.556,472.053 C157.926,483.9 169.513,492.825 180.855,499.203 " fill="none" id="&lt;b&gt;server&lt;/b&gt;-adminDao" style="stroke: #000000; stroke-width: 1.0;"/><polygon fill="#000000" points="185.347,501.61,179.3032,493.8336,180.9398,499.2485,175.5249,500.8851,185.347,501.61" style="stroke: #000000; stroke-width: 1.0;"/><!--link <b>server</b> to bcrypt--><path d="M237.044,365.474 C261.349,373.992 300.04,387.513 333.556,399.053 C347.282,403.78 362.468,408.954 375.456,413.363 " fill="none" id="&lt;b&gt;server&lt;/b&gt;-bcrypt" style="stroke: #000000; stroke-width: 1.0;"/><polygon fill="#000000" points="380.504,415.076,373.2657,408.3972,375.7689,413.47,370.6961,415.9733,380.504,415.076" style="stroke: #000000; stroke-width: 1.0;"/><!--link <b>server</b> to body-parser--><path d="M219.236,344.23 C234.375,314.183 276.298,238.771 333.556,199.053 C341.125,193.803 349.891,189.574 358.676,186.196 " fill="none" id="&lt;b&gt;server&lt;/b&gt;-body-parser" style="stroke: #000000; stroke-width: 1.0;"/><polygon fill="#000000" points="363.551,184.405,353.7237,183.7544,358.8578,186.1294,356.4827,191.2635,363.551,184.405" style="stroke: #000000; stroke-width: 1.0;"/><!--link <b>server</b> to debug--><path d="M223.768,344.594 C243.424,322.441 287.484,276.005 333.556,249.053 C346.508,241.477 362.095,235.762 375.576,231.723 " fill="none" id="&lt;b&gt;server&lt;/b&gt;-debug" style="stroke: #000000; stroke-width: 1.0;"/><polygon fill="#000000" points="380.439,230.31,370.6806,228.9785,375.6374,231.7043,372.9115,236.6611,380.439,230.31" style="stroke: #000000; stroke-width: 1.0;"/><!--link <b>server</b> to dotenv--><path d="M230.017,368.003 C238.631,374.105 248.871,382.24 256.556,391.053 C275.144,412.368 273.122,422.356 288.556,446.053 C303.839,469.519 314.906,471.154 325.556,497.053 C334.449,518.679 318.532,531.136 333.556,549.053 C343.352,560.735 358.84,566.975 373.078,570.3 " fill="none" id="&lt;b&gt;server&lt;/b&gt;-dotenv" style="stroke: #000000; stroke-width: 1.0;"/><polygon fill="#000000" points="378.254,571.3985,370.2795,565.6186,373.3628,570.3613,368.62,573.4445,378.254,571.3985" style="stroke: #000000; stroke-width: 1.0;"/><!--link <b>server</b> to eventDao--><path d="M189.343,366.234 C175.702,373.076 159.498,383.871 151.556,399.053 C146.2,409.292 145.721,415.08 151.556,425.053 C157.413,435.063 167.419,442.353 177.626,447.552 " fill="none" id="&lt;b&gt;server&lt;/b&gt;-eventDao" style="stroke: #000000; stroke-width: 1.0;"/><polygon fill="#000000" points="182.316,449.796,175.9248,442.3025,177.806,447.6374,172.4711,449.5186,182.316,449.796" style="stroke: #000000; stroke-width: 1.0;"/><!--link <b>server</b> to express--><path d="M232.348,346.873 C255.873,334.669 297.024,313.995 333.556,299.053 C345.346,294.232 358.446,289.563 370.284,285.592 " fill="none" id="&lt;b&gt;server&lt;/b&gt;-express" style="stroke: #000000; stroke-width: 1.0;"/><polygon fill="#000000" points="375.273,283.934,365.4708,282.9765,370.5282,285.5109,367.9938,290.5682,375.273,283.934" style="stroke: #000000; stroke-width: 1.0;"/><!--link <b>server</b> to jsonwebtoken--><path d="M242.1,352.113 C271.115,347.177 316.433,339.469 352.233,333.379 " fill="none" id="&lt;b&gt;server&lt;/b&gt;-jsonwebtoken" style="stroke: #000000; stroke-width: 1.0;"/><polygon fill="#000000" points="357.443,332.493,347.8996,330.0593,352.5138,333.3317,349.2414,337.9459,357.443,332.493" style="stroke: #000000; stroke-width: 1.0;"/><!--link <b>server</b> to multer--><path d="M244.121,358.936 C266.725,360.385 298.061,362.558 325.556,365.053 C341.718,366.52 359.648,368.465 374.565,370.172 " fill="none" id="&lt;b&gt;server&lt;/b&gt;-multer" style="stroke: #000000; stroke-width: 1.0;"/><polygon fill="#000000" points="379.916,370.788,371.4335,365.7832,374.9489,370.2152,370.517,373.7305,379.916,370.788" style="stroke: #000000; stroke-width: 1.0;"/><!--link <b>server</b> to mysql--><path d="M227.924,368.609 C258.868,392.629 327.808,445.988 333.556,449.053 C346.902,456.171 362.671,461.853 376.174,465.989 " fill="none" id="&lt;b&gt;server&lt;/b&gt;-mysql" style="stroke: #000000; stroke-width: 1.0;"/><polygon fill="#000000" points="381.038,467.443,373.5596,461.0342,376.2472,466.0118,371.2696,468.6994,381.038,467.443" style="stroke: #000000; stroke-width: 1.0;"/><!--link <b>server</b> to sendMail--><path d="M189.343,366.234 C175.702,373.076 159.498,383.871 151.556,399.053 C125.598,448.674 136.86,471.016 151.556,525.053 C160.613,558.356 183.461,591.886 198.342,611.2755 " fill="none" id="&lt;b&gt;server&lt;/b&gt;-sendMail" style="stroke: #000000; stroke-width: 1.0;"/><polygon fill="#000000" points="201.573,615.4259,199.2015,605.8668,198.5019,611.4802,192.8885,610.7806,201.573,615.4259" style="stroke: #000000; stroke-width: 1.0;"/><!--link <b>server</b> to serve-index--><path d="M216.696,344.084 C226.039,311.778 252.683,225.598 288.556,160.053 C304.731,130.5 306.364,118.943 333.556,99.053 C341.431,93.294 350.728,88.792 360.014,85.298 " fill="none" id="&lt;b&gt;server&lt;/b&gt;-serve-index" style="stroke: #000000; stroke-width: 1.0;"/><polygon fill="#000000" points="364.862,83.562,355.0403,82.8306,360.1547,85.2478,357.7375,90.3622,364.862,83.562" style="stroke: #000000; stroke-width: 1.0;"/><!--link <b>server</b> to UserDao--><path d="M212.056,370.078 C212.056,377.839 212.056,385.6 212.056,393.36 " fill="none" id="&lt;b&gt;server&lt;/b&gt;-UserDao" style="stroke: #000000; stroke-width: 1.0;"/><polygon fill="#000000" points="212.056,398.733,216.056,389.733,212.056,393.733,208.056,389.733,212.056,398.733" style="stroke: #000000; stroke-width: 1.0;"/><!--link <b>server</b> to uuid--><path d="M216.534,344.04 C227.146,307.004 262.785,200.392 333.556,149.053 C347.573,138.885 366.033,132.627 380.946,128.914 " fill="none" id="&lt;b&gt;server&lt;/b&gt;-uuid" style="stroke: #000000; stroke-width: 1.0;"/><polygon fill="#000000" points="385.856,127.751,376.1763,125.9337,380.9907,128.9038,378.0207,133.7182,385.856,127.751" style="stroke: #000000; stroke-width: 1.0;"/><!--link <b>setup</b> to dotenv--><path d="M107.094,579.0501 C116.776,582.2934 127.452,587.1025 135.556,594.0533 C157.023,612.4651 143.041,634.9539 167.556,649.0533 C228.44,684.069 260.424,672.3343 325.556,646.0533 C351.865,635.4376 375.369,612.4773 390.296,595.322 " fill="none" id="&lt;b&gt;setup&lt;/b&gt;-dotenv" style="stroke: #000000; stroke-width: 1.0;"/><polygon fill="#000000" points="393.903,591.0965,385.0183,595.3464,390.6575,594.9,391.1039,600.5392,393.903,591.0965" style="stroke: #000000; stroke-width: 1.0;"/><!--link <b>setup</b> to mysql--><path d="M108.299,568.569 C118.278,565.543 128.848,560.487 135.556,552.053 C195.967,476.101 94.0767,399.449 167.556,336.053 C197.506,310.214 220.645,319.47 256.556,336.053 C299.491,355.88 303.917,375.004 325.556,417.053 C332.264,430.088 323.629,438.267 333.556,449.053 C344.463,460.904 361.202,467.138 375.951,470.417 " fill="none" id="&lt;b&gt;setup&lt;/b&gt;-mysql" style="stroke: #000000; stroke-width: 1.0;"/><polygon fill="#000000" points="380.866,471.42,372.8479,465.7007,375.967,470.4199,371.2478,473.539,380.866,471.42" style="stroke: #000000; stroke-width: 1.0;"/><!--link <b>setup</b> to runsqlfile--><path d="M81.0563,586.1373 C81.0563,589.5916 81.0563,593.0459 81.0563,596.5001 " fill="none" id="&lt;b&gt;setup&lt;/b&gt;-runsqlfile" style="stroke: #000000; stroke-width: 1.0;"/><polygon fill="#000000" points="81.0563,601.9283,85.0563,592.9283,81.0563,596.9283,77.0563,592.9283,81.0563,601.9283" style="stroke: #000000; stroke-width: 1.0;"/><!--link <b>teardown</b> to mysql--><path d="M107.947,541.814 C156.636,560.139 262.589,590.6739 325.556,539.053 C339.577,527.559 321.6,512.681 333.556,499.053 C344.258,486.856 361.149,480.602 376.042,477.398 " fill="none" id="&lt;b&gt;teardown&lt;/b&gt;-mysql" style="stroke: #000000; stroke-width: 1.0;"/><polygon fill="#000000" points="381.004,476.425,371.4022,474.2327,376.0976,477.3877,372.9426,482.083,381.004,476.425" style="stroke: #000000; stroke-width: 1.0;"/><!--link <b>teardown</b> to runsqlfile--><path d="M41.4328,537.95 C29.3046,542.185 17.375,549.02 10.5563,560.053 C4.4812,569.883 4.4812,576.2236 10.5563,586.0533 C17.0706,596.5937 28.2497,603.3032 39.8101,607.5741 " fill="none" id="&lt;b&gt;teardown&lt;/b&gt;-runsqlfile" style="stroke: #000000; stroke-width: 1.0;"/><polygon fill="#000000" points="44.7755,609.2592,37.5386,602.5788,40.0408,607.6522,34.9674,610.1544,44.7755,609.2592" style="stroke: #000000; stroke-width: 1.0;"/><!--link UserDao to bcrypt--><path d="M250.003,414.339 C286.214,416.578 340.832,419.957 375.188,422.082 " fill="none" id="UserDao-bcrypt" style="stroke: #000000; stroke-width: 0.5;"/><polygon fill="#000000" points="380.522,422.412,371.786,417.8641,375.5315,422.1034,371.2923,425.8489,380.522,422.412" style="stroke: #000000; stroke-width: 0.5;"/><!--link UserDao to dao--><path d="M235.387,422.532 C242.7,426.673 250.495,431.921 256.556,438.053 C276.436,458.168 273.323,469.226 288.556,493.053 C290.429,495.983 292.492,499.053 294.524,501.999 " fill="none" id="UserDao-dao" style="stroke: #000000; stroke-width: 0.5;"/><polygon fill="#000000" points="297.66,506.49,295.7871,496.8209,294.7975,502.3905,289.2279,501.4009,297.66,506.49" style="stroke: #000000; stroke-width: 0.5;"/><!--link <b>lang-css</b> to <b>linenumber</b>--><!--link <b>lang-css</b> to <b>prettify</b>--><script type="text/plantuml"><![CDATA[
@startuml

scale max 1920 width
left to right direction

skinparam nodesep 16
skinparam ranksep 32
skinparam monochrome true
skinparam shadowing false
skinparam defaultFontName Tahoma
skinparam defaultFontSize 12
skinparam roundCorner 6
skinparam dpi 150
skinparam arrowColor black
skinparam arrowThickness 0.5
skinparam packageTitleAlignment left

skinparam usecase {
  borderThickness 0.5
}

skinparam rectangle {
  borderThickness 0.5
}

skinparam component {
  borderThickness 1
}


(adminDao)
(dao)
(eventDao)
(<b>lang-css</b>)
(<b>linenumber</b>)
(<b>prettify</b>)
(runsqlfile)
(sendMail)
(<b>server</b>)
(<b>setup</b>)
(<b>teardown</b>)
(UserDao)

package "Dependencies" {
  [bcrypt]
  [body-parser]
  [debug]
  [dotenv]
  [express]
  [jsonwebtoken]
  [multer]
  [mysql]
  [nodemailer]
  [serve-index]
  [uuid]
}

(adminDao) --> (dao)
(eventDao) --> (dao)
(runsqlfile) ----> [mysql]
(sendMail) ---> [dotenv]
(sendMail) ---> [nodemailer]
(<b>server</b>) -[thickness=1]> (adminDao)
(<b>server</b>) ---[thickness=1]> [bcrypt]
(<b>server</b>) ---[thickness=1]> [body-parser]
(<b>server</b>) ---[thickness=1]> [debug]
(<b>server</b>) ---[thickness=1]> [dotenv]
(<b>server</b>) -[thickness=1]> (eventDao)
(<b>server</b>) ---[thickness=1]> [express]
(<b>server</b>) ---[thickness=1]> [jsonwebtoken]
(<b>server</b>) ---[thickness=1]> [multer]
(<b>server</b>) ---[thickness=1]> [mysql]
(<b>server</b>) -[thickness=1]> (sendMail)
(<b>server</b>) ---[thickness=1]> [serve-index]
(<b>server</b>) -[thickness=1]> (UserDao)
(<b>server</b>) ---[thickness=1]> [uuid]
(<b>setup</b>) ----[thickness=1]> [dotenv]
(<b>setup</b>) ----[thickness=1]> [mysql]
(<b>setup</b>) -[thickness=1]> (runsqlfile)
(<b>teardown</b>) ----[thickness=1]> [mysql]
(<b>teardown</b>) -[thickness=1]> (runsqlfile)
(UserDao) ----> [bcrypt]
(UserDao) --> (dao)

@enduml


' View and edit on https://arkit.pro
]]></script></g></svg>